<mxfile host="app.diagrams.net" agent="Mozilla/5.0 (X11; Linux x86_64; rv:128.0) Gecko/20100101 Firefox/128.0" version="26.0.16">
  <diagram name="Page-1" id="PcIzl6Ms8cfM_HqsrIi9">
    <mxGraphModel dx="673" dy="364" grid="1" gridSize="10" guides="1" tooltips="1" connect="1" arrows="1" fold="1" page="1" pageScale="1" pageWidth="850" pageHeight="1100" math="0" shadow="0">
      <root>
        <mxCell id="0" />
        <mxCell id="1" parent="0" />
        <mxCell id="5Uhc0eHx62OeCUA1feoG-1" value="&lt;div&gt;RECEPT&lt;/div&gt;&lt;div&gt;# strana&lt;/div&gt;&lt;div&gt;* nazev&lt;/div&gt;&lt;div&gt;* kategorie&lt;/div&gt;&lt;div&gt;* delka&lt;/div&gt;&lt;div&gt;* obtiznost&lt;/div&gt;&lt;div&gt;* pocet porci&lt;br&gt;&lt;/div&gt;&lt;div&gt;o popisek&lt;/div&gt;&lt;div&gt;o typ&lt;/div&gt;" style="rounded=1;whiteSpace=wrap;html=1;" vertex="1" parent="1">
          <mxGeometry x="170" y="50" width="120" height="140" as="geometry" />
        </mxCell>
        <mxCell id="5Uhc0eHx62OeCUA1feoG-2" value="&lt;div&gt;INGREDIENCE&lt;/div&gt;&lt;div&gt;# id (qr kod)&lt;br&gt;&lt;/div&gt;&lt;div&gt;* nazev&lt;/div&gt;&lt;div&gt;o mnozstvi&lt;/div&gt;&lt;div&gt;o jednotka&lt;br&gt;&lt;/div&gt;&lt;div&gt;o info navic&lt;br&gt;&lt;/div&gt;&lt;div&gt;&lt;br&gt;&lt;/div&gt;" style="rounded=1;whiteSpace=wrap;html=1;" vertex="1" parent="1">
          <mxGeometry x="365" y="50" width="120" height="120" as="geometry" />
        </mxCell>
        <mxCell id="5Uhc0eHx62OeCUA1feoG-6" value="&lt;div&gt;POSTUP&lt;/div&gt;&lt;div&gt;# id/kod&lt;/div&gt;&lt;div&gt;* postup&lt;/div&gt;&lt;div&gt;o priprava&lt;br&gt;&lt;/div&gt;" style="rounded=1;whiteSpace=wrap;html=1;" vertex="1" parent="1">
          <mxGeometry x="170" y="230" width="120" height="120" as="geometry" />
        </mxCell>
        <mxCell id="5Uhc0eHx62OeCUA1feoG-10" value="" style="edgeStyle=entityRelationEdgeStyle;fontSize=12;html=1;endArrow=ERoneToMany;startArrow=ERzeroToMany;rounded=0;entryX=1;entryY=0.25;entryDx=0;entryDy=0;exitX=0;exitY=0.5;exitDx=0;exitDy=0;" edge="1" parent="1" source="5Uhc0eHx62OeCUA1feoG-2" target="5Uhc0eHx62OeCUA1feoG-1">
          <mxGeometry width="100" height="100" relative="1" as="geometry">
            <mxPoint x="310" y="320" as="sourcePoint" />
            <mxPoint x="320" y="120" as="targetPoint" />
          </mxGeometry>
        </mxCell>
        <mxCell id="5Uhc0eHx62OeCUA1feoG-11" value="" style="edgeStyle=entityRelationEdgeStyle;fontSize=12;html=1;endArrow=ERoneToMany;startArrow=ERzeroToOne;rounded=0;exitX=1;exitY=0.5;exitDx=0;exitDy=0;entryX=1;entryY=0.75;entryDx=0;entryDy=0;" edge="1" parent="1" source="5Uhc0eHx62OeCUA1feoG-6" target="5Uhc0eHx62OeCUA1feoG-1">
          <mxGeometry width="100" height="100" relative="1" as="geometry">
            <mxPoint x="320" y="305" as="sourcePoint" />
            <mxPoint x="320" y="170" as="targetPoint" />
            <Array as="points">
              <mxPoint x="290" y="235" />
            </Array>
          </mxGeometry>
        </mxCell>
      </root>
    </mxGraphModel>
  </diagram>
</mxfile>
